# xmcd
#
# Track frame offsets: 
#        150
#        22216
#        44933
#        72838
#        92692
#        115148
#        137192
#        156720
#        185919
#        208830
#        229198
#        249826
#        252557
#        268318
#        289031
#        311605
#        332023
#
# Disc length: 4666 seconds
#
# Revision: 0
# Processed by: cddbd v1.5.1PL0 Copyright (c) Steve Scherf et al.
# Submitted via: ExactAudioCopy v0.95a5
#
DISCID=17123811
DTITLE=The Eagles - Farewell 1 Tour - Live in Melbourne
DYEAR=2004
DGENRE=Rock
TTITLE0=01 The Long Run
TTITLE1=02 The New Kid in Town
TTITLE2=03 Wasted Time
TTITLE3=04 Peaceful Easy Feeling
TTITLE4=05 I cant Tell You Why
TTITLE5=06 One of these nights
TTITLE6=07 One Day at a Time
TTITLE7=08 Lyin Eyes
TTITLE8=09 The Boys of Summer
TTITLE9=10 In the City
TTITLE10=11 Already Gone
TTITLE11=12 Silent Spring (Intro)
TTITLE12=13 Tequila Sunrise
TTITLE13=14 Love will keep us alive
TTITLE14=15 No more cloudy days
TTITLE15=16 Hole in the world
TTITLE16=17 Take it to the Limit
EXTD=
EXTT0=
EXTT1=
EXTT2=
EXTT3=
EXTT4=
EXTT5=
EXTT6=
EXTT7=
EXTT8=
EXTT9=
EXTT10=
EXTT11=
EXTT12=
EXTT13=
EXTT14=
EXTT15=
EXTT16=
PLAYORDER=
